<?xml version="1.0" encoding="UTF-8"?>
<svg id="Layer_1" data-name="Layer 1" xmlns="http://www.w3.org/2000/svg" viewBox="48.76 70.7 283.47 72.17">
  <defs>
    <style>
      .cls-1 { fill: none; }
      .cls-1, .cls-2 { stroke-width: 0px; }
      .cls-2 { fill: #000000; }
    </style>
  </defs>
  <g>
    <path class="cls-2" d="M128.52,92.28v7.14h-23.35v-28.08h22.83v7.14h-13.52v3.29h11.88v6.82h-11.88v3.69h14.04Z"/>
    <path class="cls-2" d="M132.49,71.34h9.47v28.08h-9.47v-28.08Z"/>
    <path class="cls-2" d="M174.13,71.34v28.08h-7.78l-10.67-12.76v12.76h-9.23v-28.08h7.78l10.67,12.76v-12.76h9.23Z"/>
    <path class="cls-2" d="M184.56,78.68h-8.22v-7.34h25.92v7.34h-8.22v20.74h-9.47v-20.74Z"/>
    <path class="cls-2" d="M216.37,92.36h-2.57v7.06h-9.47v-28.08h13.52c7.82,0,12.8,4.09,12.8,10.59,0,4.05-1.93,7.1-5.3,8.83l5.9,8.67h-10.11l-4.77-7.06ZM217.25,78.64h-3.45v6.58h3.45c2.61,0,3.85-1.24,3.85-3.29s-1.24-3.29-3.85-3.29Z"/>
    <path class="cls-2" d="M234.38,71.34h9.47v28.08h-9.47v-28.08Z"/>
    <path class="cls-2" d="M259.77,90.11l-2.13,2.37v6.94h-9.31v-28.08h9.31v10.19l9.23-10.19h10.31l-11.23,12.36,11.8,15.73h-10.95l-7.02-9.31Z"/>
    <path class="cls-2" d="M274.9,85.38c0-8.51,6.7-14.68,15.85-14.68s15.85,6.18,15.85,14.68-6.7,14.68-15.85,14.68-15.85-6.18-15.85-14.68ZM297.04,85.38c0-4.37-2.81-7.02-6.3-7.02s-6.3,2.65-6.3,7.02,2.81,7.02,6.3,7.02,6.3-2.65,6.3-7.02Z"/>
    <path class="cls-2" d="M314.53,78.68h-8.22v-7.34h25.92v7.34h-8.22v20.74h-9.47v-20.74Z"/>
  </g>
  <rect class="cls-1" x=".34" y=".14" width="382.68" height="212.6"/>
  <path class="cls-2" d="M48.76,71.33v28.18h18.99v43.36h37.33v-43.38c-15.55,0-28.16-12.61-28.16-28.16h-28.16Z"/>
</svg>
